<svg width="767" height="128" viewBox="0 0 767 128" fill="none" xmlns="http://www.w3.org/2000/svg">
<path d="M16.825 92.95C16.425 92.95 15.925 92.85 15.325 92.65C14.725 92.45 14.375 92.1 14.275 91.6C14.175 91.4 14.125 91.1 14.125 90.7C14.025 90.2 14.025 89.75 14.125 89.35H13.375C11.775 89.35 9.975 89.1 7.975 88.6C6.075 88.2 4.525 87.25 3.325 85.75C2.925 85.25 2.425 84.25 1.825 82.75C1.325 81.25 0.875 79.8 0.475 78.4C0.175 76.9 0.0250001 76 0.0250001 75.7C0.0250001 74.4 0.575 73 1.675 71.5C2.775 70 4.075 68.7 5.575 67.6C7.075 66.5 8.475 65.95 9.775 65.95C10.375 65.35 11.575 64.65 13.375 63.85C15.275 63.05 17.225 62.3 19.225 61.6C21.325 60.9 23.025 60.4 24.325 60.1C25.025 58.4 25.675 56.8 26.275 55.3C27.375 52.5 28.525 49.8 29.725 47.2C31.025 44.6 32.275 42.45 33.475 40.75C37.175 35.15 40.675 30.25 43.975 26.05C47.375 21.75 51.175 17.9 55.375 14.5C59.675 11 64.975 7.65 71.275 4.45C72.775 3.65 74.225 2.95 75.625 2.35C77.125 1.64999 78.725 1.24999 80.425 1.14999C81.925 1.14999 83.425 0.999994 84.925 0.699992C86.025 0.899995 87.425 1.3 89.125 1.89999C90.925 2.39999 92.525 3.09999 93.925 3.99999C95.325 4.8 96.075 5.8 96.175 7C96.375 9.9 95.575 12.8 93.775 15.7C91.975 18.6 90.225 21.05 88.525 23.05C85.225 27.05 81.625 30.95 77.725 34.75C73.825 38.55 69.575 41.85 64.975 44.65C63.075 45.85 61.075 47.1 58.975 48.4C56.975 49.6 54.975 50.75 52.975 51.85C50.075 53.35 47.075 54.75 43.975 56.05C40.975 57.25 37.925 58.45 34.825 59.65C33.425 60.25 32.075 61.15 30.775 62.35C29.475 63.55 28.275 64.7 27.175 65.8C26.375 66.6 25.475 68 24.475 70C23.575 71.9 22.825 73.9 22.225 76C21.625 78 21.375 79.55 21.475 80.65V80.95C22.675 80.85 23.875 80.8 25.075 80.8C26.275 80.7 27.425 80.6 28.525 80.5C30.425 80.3 32.275 80.05 34.075 79.75C35.875 79.45 37.725 79.25 39.625 79.15V78.85L42.775 78.7C43.175 78.6 44.325 78.4 46.225 78.1C48.125 77.8 50.225 77.45 52.525 77.05C54.925 76.65 57.075 76.3 58.975 76C60.975 75.7 62.225 75.55 62.725 75.55C63.325 75.25 64.075 75.1 64.975 75.1C65.975 75 66.825 74.95 67.525 74.95C67.825 74.95 68.125 75 68.425 75.1C68.825 75.1 69.175 75.1 69.475 75.1C69.675 75.1 70.475 75.05 71.875 74.95C73.375 74.75 74.225 74.6 74.425 74.5C76.625 74.6 78.925 74.7 81.325 74.8C83.825 74.8 86.225 75.1 88.525 75.7C90.825 76.2 92.875 77.25 94.675 78.85C95.775 79.85 96.725 81.35 97.525 83.35C98.325 85.35 98.925 87.3 99.325 89.2C99.725 91.2 99.925 92.75 99.925 93.85C99.925 94.85 99.725 95.8 99.325 96.7C98.925 97.7 98.175 98.35 97.075 98.65C96.775 98.75 96.475 98.8 96.175 98.8C95.875 98.9 95.575 99.05 95.275 99.25C94.575 99.45 93.825 99.75 93.025 100.15C92.225 100.65 91.425 100.9 90.625 100.9H89.875V100.6H89.725V99.7H90.025C91.525 98.6 93.025 97.25 94.525 95.65C96.125 94.05 96.925 92.35 96.925 90.55C96.925 88.25 95.875 86.4 93.775 85C91.775 83.6 89.225 82.55 86.125 81.85C83.125 81.05 80.125 80.55 77.125 80.35C74.125 80.05 71.625 79.9 69.625 79.9C67.325 79.9 64.675 80.1 61.675 80.5C58.775 80.8 55.725 81.25 52.525 81.85L35.725 85.15C35.025 85.25 34.375 85.4 33.775 85.6C33.275 85.9 32.775 86.15 32.275 86.35C31.675 86.45 31.025 86.55 30.325 86.65C29.725 86.85 28.975 86.95 28.075 86.95C27.975 86.95 27.725 87.05 27.325 87.25L26.425 87.55L23.725 87.4C23.425 87.4 23.075 87.4 22.675 87.4V88.15L22.225 88C21.925 88.1 21.625 88.2 21.325 88.3C21.125 89.1 20.775 89.85 20.275 90.55C19.875 91.35 19.425 91.9 18.925 92.2C18.725 92.6 18.375 92.8 17.875 92.8C17.475 92.9 17.125 92.95 16.825 92.95ZM30.625 58.45C43.425 53.45 54.725 47.15 64.525 39.55C74.425 31.95 82.925 23.15 90.025 13.15C91.325 11.25 91.975 9.8 91.975 8.79999C91.975 8.09999 91.775 7.6 91.375 7.3C90.975 6.99999 90.525 6.79999 90.025 6.69999C89.225 6.5 88.525 6.4 87.925 6.4C85.625 6.4 83.375 6.9 81.175 7.9C78.875 8.9 76.675 10.15 74.575 11.65C72.475 13.05 70.375 14.45 68.275 15.85L61.825 20.35C56.925 23.75 52.375 27.9 48.175 32.8C43.975 37.6 40.225 42.4 36.925 47.2C36.625 47.7 36.025 48.7 35.125 50.2C34.225 51.7 33.325 53.25 32.425 54.85C31.625 56.35 31.025 57.55 30.625 58.45ZM3.625 78.4C3.725 79.3 4.325 80 5.425 80.5C6.625 80.9 7.925 81.15 9.325 81.25C10.825 81.35 11.975 81.4 12.775 81.4C13.975 81.4 15.275 81.35 16.675 81.25C17.275 79.55 17.875 77.7 18.475 75.7C19.175 73.6 19.775 71.85 20.275 70.45C20.675 69.45 21.075 68.35 21.475 67.15C21.975 65.95 22.475 64.7 22.975 63.4C21.475 64.4 19.625 65.65 17.425 67.15C15.225 68.65 13.075 70.2 10.975 71.8C8.875 73.3 7.075 74.65 5.575 75.85C4.175 77.05 3.525 77.9 3.625 78.4ZM111.066 83.05C109.266 83.05 107.316 82.7 105.216 82C103.216 81.3 101.466 80.25 99.966 78.85C98.566 77.45 97.766 75.75 97.566 73.75C97.566 73.25 97.566 72.75 97.566 72.25C97.666 71.75 97.666 71.3 97.566 70.9C97.566 70.6 97.266 70.3 96.666 70L96.216 69.55C95.816 69.35 95.416 69.1 95.016 68.8C94.616 68.4 94.416 67.95 94.416 67.45C94.716 67.35 94.966 67.3 95.166 67.3C95.666 67.3 96.116 67.35 96.516 67.45C97.016 67.55 97.466 67.6 97.866 67.6C97.766 67.6 97.816 67.4 98.016 67C98.016 66.8 98.066 66.6 98.166 66.4C98.266 66.1 98.366 65.9 98.466 65.8C98.566 65.8 98.716 65.45 98.916 64.75C99.116 63.95 99.266 63.5 99.366 63.4C100.766 59.1 102.666 55.45 105.066 52.45C107.566 49.35 110.966 47.05 115.266 45.55C115.666 45.45 116.016 45.4 116.316 45.4C116.716 45.3 117.116 45.25 117.516 45.25C118.316 45.25 119.366 45.55 120.666 46.15C121.966 46.65 123.116 47.35 124.116 48.25C125.216 49.05 125.816 49.9 125.916 50.8C125.916 51.2 125.916 51.55 125.916 51.85C126.016 52.15 126.066 52.5 126.066 52.9C126.066 53.5 125.916 54.2 125.616 55L124.716 55.45C124.516 55.85 124.316 56.15 124.116 56.35L123.216 57.4C122.416 58.2 122.116 58.75 122.316 59.05L122.016 59.2C122.016 59.2 122.016 59.25 122.016 59.35C122.016 59.35 121.966 59.35 121.866 59.35L122.016 59.2L121.866 59.35V59.5L121.116 59.65C120.716 59.95 120.366 60.3 120.066 60.7C119.766 61 119.466 61.35 119.166 61.75C117.666 63.35 115.716 64.75 113.316 65.95C110.916 67.05 108.716 68.05 106.716 68.95C106.416 69.05 105.966 69.2 105.366 69.4C104.866 69.5 104.516 69.7 104.316 70C103.916 70.5 103.666 71.15 103.566 71.95C103.466 72.75 103.416 73.5 103.416 74.2C103.616 75.4 103.916 76.55 104.316 77.65C104.816 78.75 105.816 79.3 107.316 79.3H108.666C109.166 79.3 109.666 79.25 110.166 79.15C110.766 79.05 111.366 78.95 111.966 78.85L113.016 78.25L113.166 78.4C113.766 78.2 114.816 77.75 116.316 77.05C117.816 76.35 119.266 75.65 120.666 74.95C122.066 74.15 122.916 73.6 123.216 73.3L123.366 73.15L123.516 72.85L123.966 72.4C125.766 71.1 127.516 70 129.216 69.1C130.916 68.1 132.566 66.8 134.166 65.2L134.466 65.5H134.916C134.816 66.2 134.566 66.75 134.166 67.15C133.766 67.45 133.316 67.85 132.816 68.35L132.366 69.1C131.166 71 129.316 72.9 126.816 74.8C124.416 76.7 122.216 78.3 120.216 79.6C119.516 80 118.816 80.5 118.116 81.1C117.416 81.6 116.616 82 115.716 82.3C114.016 82.8 112.466 83.05 111.066 83.05ZM106.266 64.45C106.866 64.45 107.266 64.45 107.466 64.45C107.766 64.35 108.166 64.25 108.666 64.15C110.666 63.05 112.516 61.75 114.216 60.25C116.016 58.75 117.716 57.25 119.316 55.75C119.516 55.05 120.016 54.45 120.816 53.95L121.416 53.5C121.616 53.3 121.766 53.1 121.866 52.9C122.066 52.7 122.166 52.5 122.166 52.3C122.266 52.2 122.216 51.85 122.016 51.25L121.866 50.5V50.2C121.566 50.1 121.166 50.05 120.666 50.05C119.966 50.35 119.266 50.8 118.566 51.4C117.866 52 117.116 52.35 116.316 52.45C115.916 53.05 115.066 53.85 113.766 54.85C113.066 55.45 112.366 56.05 111.666 56.65C111.066 57.15 110.666 57.5 110.466 57.7C109.766 58.4 108.916 59.5 107.916 61C106.916 62.4 106.366 63.55 106.266 64.45ZM201.944 88.45C200.944 88.45 199.544 88.15 197.744 87.55C196.044 87.05 195.144 86.3 195.044 85.3C194.944 84.2 195.094 83.2 195.494 82.3C195.994 81.4 196.444 80.45 196.844 79.45L201.344 69.25C204.544 61.95 208.094 55.25 211.994 49.15C215.994 42.95 219.594 36.2 222.794 28.9C224.194 25.7 225.894 22.3 227.894 18.7C229.894 15.1 230.894 11.5 230.894 7.9C230.894 6.2 230.544 5.14999 229.844 4.74999C229.244 4.24999 228.244 3.99999 226.844 3.99999C224.944 3.99999 223.044 4.39999 221.144 5.2C219.344 5.9 217.594 6.65 215.894 7.45C210.594 9.95 205.894 12.75 201.794 15.85C197.794 18.85 194.044 22.2 190.544 25.9C187.044 29.5 183.494 33.45 179.894 37.75C178.594 39.25 177.044 41.15 175.244 43.45C173.444 45.65 171.844 48 170.444 50.5C169.044 52.9 168.344 55.15 168.344 57.25C168.344 58.75 168.944 59.7 170.144 60.1C171.344 60.4 172.594 60.55 173.894 60.55C174.694 60.55 175.444 60.45 176.144 60.25C176.944 60.05 177.694 59.9 178.394 59.8L181.244 59.35C184.744 58.75 187.294 58.25 188.894 57.85C190.494 57.45 191.544 57.1 192.044 56.8C192.644 56.5 193.094 56.35 193.394 56.35C193.594 56.35 193.894 56.35 194.294 56.35C194.694 56.25 195.294 56.15 196.094 56.05C196.394 56.15 196.644 56.2 196.844 56.2C197.044 56.2 197.194 56.25 197.294 56.35C197.494 56.55 197.594 56.75 197.594 56.95C197.594 57.25 197.344 57.5 196.844 57.7C196.444 57.8 195.994 57.85 195.494 57.85C194.594 58.25 193.244 58.85 191.444 59.65C189.744 60.45 187.744 61.25 185.444 62.05C183.244 62.85 180.894 63.6 178.394 64.3C175.994 64.9 173.744 65.2 171.644 65.2C170.044 65.2 168.294 64.95 166.394 64.45C164.494 63.85 162.844 63 161.444 61.9C160.044 60.7 159.244 59.2 159.044 57.4C158.844 55 159.294 52.7 160.394 50.5C161.594 48.3 163.044 46.2 164.744 44.2C166.444 42.2 167.994 40.4 169.394 38.8C169.994 38.2 170.494 37.55 170.894 36.85C171.294 36.05 171.794 35.4 172.394 34.9C172.894 34.4 173.444 33.9 174.044 33.4C174.744 32.9 175.344 32.4 175.844 31.9C176.944 30.9 177.894 29.9 178.694 28.9C179.594 27.9 180.694 27.05 181.994 26.35C182.194 26.05 182.394 25.75 182.594 25.45C182.794 25.05 182.994 24.7 183.194 24.4C183.694 23.6 184.394 22.9 185.294 22.3C186.294 21.6 187.144 20.95 187.844 20.35C189.144 19.25 190.444 18.3 191.744 17.5C193.144 16.7 194.494 15.85 195.794 14.95C197.894 13.45 199.994 12 202.094 10.6C204.294 9.2 206.594 7.95 208.994 6.84999C209.294 6.65 209.644 6.5 210.044 6.4C210.444 6.2 210.844 5.95 211.244 5.65L211.394 5.8C214.194 3.69999 217.644 2.39999 221.744 1.89999C222.144 1.8 222.544 1.7 222.944 1.6C223.344 1.5 223.744 1.4 224.144 1.29999C227.044 1.29999 229.844 2.14999 232.544 3.85C235.244 5.55 236.594 8.15 236.594 11.65C236.594 14.05 236.044 16.35 234.944 18.55C233.944 20.65 232.894 22.7 231.794 24.7C231.094 25.8 230.494 26.95 229.994 28.15C229.494 29.35 228.944 30.5 228.344 31.6C226.044 35.8 223.694 40 221.294 44.2C218.894 48.3 216.694 52.55 214.694 56.95C214.194 57.95 213.494 59.35 212.594 61.15C211.694 62.85 211.144 64.25 210.944 65.35C214.144 60.95 217.094 56.45 219.794 51.85C222.594 47.25 225.594 42.85 228.794 38.65C229.594 37.55 230.394 36.5 231.194 35.5C231.994 34.4 232.744 33.35 233.444 32.35C234.544 31.05 235.744 29.6 237.044 28C238.344 26.3 239.744 24.85 241.244 23.65C242.844 22.45 244.544 21.85 246.344 21.85C247.644 21.85 249.244 22.2 251.144 22.9C253.144 23.6 254.994 24.5 256.694 25.6C258.394 26.7 259.494 27.85 259.994 29.05C260.194 29.55 260.344 30.2 260.444 31C260.544 31.8 260.594 32.6 260.594 33.4C260.594 34.3 260.544 35.2 260.444 36.1C260.444 37 260.394 37.75 260.294 38.35C259.694 41.75 259.194 45.25 258.794 48.85C258.494 52.45 258.344 56.15 258.344 59.95C258.344 63.35 258.494 66.7 258.794 70C258.894 70.8 259.044 72.2 259.244 74.2C259.444 76.1 259.894 77.9 260.594 79.6C261.294 81.3 262.244 82.15 263.444 82.15C264.544 82.15 265.494 81.3 266.294 79.6C267.194 77.9 267.844 76.6 268.244 75.7C268.744 74.7 269.194 74.15 269.594 74.05C269.794 74.35 269.894 74.7 269.894 75.1C269.994 75.8 269.994 77.15 269.894 79.15C269.794 81.15 269.444 82.5 268.844 83.2C268.444 83.6 267.694 83.85 266.594 83.95C265.594 84.05 264.794 84.1 264.194 84.1C261.694 84.3 259.594 83.75 257.894 82.45C256.294 81.25 254.994 79.7 253.994 77.8C252.994 75.9 252.244 74 251.744 72.1C251.344 70.1 251.094 68.5 250.994 67.3C250.794 64.8 250.644 62.25 250.544 59.65C250.444 57.05 250.394 54.5 250.394 52C250.394 47.3 250.544 42.7 250.844 38.2C250.844 37.7 250.894 36.95 250.994 35.95C251.094 34.85 251.144 33.7 251.144 32.5C251.144 30.6 250.944 28.85 250.544 27.25C250.244 25.55 249.494 24.7 248.294 24.7C247.494 24.7 246.644 25.05 245.744 25.75C244.844 26.45 244.094 27.05 243.494 27.55C237.294 33.35 231.894 39.8 227.294 46.9C222.694 53.9 218.344 61 214.244 68.2C212.644 71 211.244 73.9 210.044 76.9C208.944 79.8 207.644 82.7 206.144 85.6C205.744 86.3 205.194 86.95 204.494 87.55C203.894 88.15 203.044 88.45 201.944 88.45ZM277.15 86.35C276.15 86.45 275.15 86.25 274.15 85.75C273.15 85.25 272.55 84.45 272.35 83.35C272.25 81.35 272.5 78.95 273.1 76.15C273.7 73.35 274.45 70.5 275.35 67.6C276.25 64.7 276.95 62.15 277.45 59.95C278.05 57.65 278.35 56.05 278.35 55.15H277.75C276.35 55.15 274.85 54.7 273.25 53.8C271.75 52.8 271 51.5 271 49.9C271 48.6 271.5 47.45 272.5 46.45C273.6 45.45 274.6 44.65 275.5 44.05C275.8 43.85 276.1 43.6 276.4 43.3C276.8 43 277.2 42.8 277.6 42.7L279.25 42.1L279.4 42.7C279.4 42.9 278.95 43.45 278.05 44.35L277.15 45.4C276.85 45.7 276.7 45.9 276.7 46C276.3 46.5 275.9 47.45 275.5 48.85C275.2 50.25 275.05 51.25 275.05 51.85C275.15 52.25 275.35 52.5 275.65 52.6C276.05 52.6 276.45 52.6 276.85 52.6C277.25 52.6 277.7 52.5 278.2 52.3C278.7 52 279.15 51.85 279.55 51.85C279.75 51.25 279.95 50.75 280.15 50.35L281.05 48.7V48.25C281.25 47.55 281.45 46.85 281.65 46.15C281.85 45.35 282 44.6 282.1 43.9C282.3 43.1 282.5 42.35 282.7 41.65C282.9 40.85 283.2 40.05 283.6 39.25C284.3 37.65 285.1 35.6 286 33.1C286.9 30.5 287.85 28 288.85 25.6C289.95 23.1 291 21.3 292 20.2C292.4 19.5 292.8 18.85 293.2 18.25C293.7 17.65 294.15 17 294.55 16.3C295.55 14.8 297.05 13.05 299.05 11.05C301.05 9.05 303.2 7.19999 305.5 5.49999C307.8 3.7 309.8 2.55 311.5 2.04999L313.75 1.29999C314.75 1.5 316.05 2 317.65 2.8C319.25 3.6 320.65 4.55 321.85 5.65C323.15 6.75 323.85 7.9 323.95 9.1C324.15 11 323.6 13.35 322.3 16.15C321 18.95 319.5 21.65 317.8 24.25C316.1 26.75 314.65 28.7 313.45 30.1C312.85 30.8 312.2 31.5 311.5 32.2C310.9 32.8 310.35 33.5 309.85 34.3C309.15 34.7 308.55 35.25 308.05 35.95C307.65 36.55 307.15 37.1 306.55 37.6C305.95 38.2 304.8 39.2 303.1 40.6C301.5 41.9 299.65 43.35 297.55 44.95C295.55 46.45 293.65 47.8 291.85 49C290.15 50.1 288.95 50.75 288.25 50.95C287.85 51.15 287.45 51.35 287.05 51.55C286.75 51.65 286.4 51.8 286 52C285.5 52.3 284.9 52.7 284.2 53.2C283.8 53.5 283.4 54.3 283 55.6C282.6 56.8 282.2 58.1 281.8 59.5C281.5 60.8 281.25 61.75 281.05 62.35C280.65 63.45 280.35 64.6 280.15 65.8C280.05 67 279.75 68.15 279.25 69.25L278.95 70.75C278.75 71.75 278.5 72.75 278.2 73.75C277.9 74.75 277.65 75.8 277.45 76.9L277 79.3V79.45L280.6 75.55C281.5 74.55 282.8 73.1 284.5 71.2C286.2 69.3 288.05 67.25 290.05 65.05C292.05 62.75 294.05 60.6 296.05 58.6C298.15 56.5 300 54.75 301.6 53.35C303.2 51.95 304.35 51.2 305.05 51.1C305.25 51.1 305.4 51.1 305.5 51.1C305.6 51 305.7 50.95 305.8 50.95C307.5 50.95 309.05 51.35 310.45 52.15C311.85 52.95 312.3 53.9 311.8 55C311.2 57.4 310.3 59.9 309.1 62.5C308 65 307.05 67.5 306.25 70C305.45 72.5 305.15 75.05 305.35 77.65C305.45 78.35 305.7 79.55 306.1 81.25C306.6 82.95 307.45 83.8 308.65 83.8C309.65 83.8 310.7 83.3 311.8 82.3C313 81.4 314.1 80.35 315.1 79.15C316.2 77.95 317.1 76.95 317.8 76.15C318.3 75.65 318.8 75.15 319.3 74.65C319.8 74.05 320.4 73.5 321.1 73L321.25 75.4C321.05 75.8 320.85 76.2 320.65 76.6C320.45 77 320.25 77.4 320.05 77.8C319.35 78.9 318.6 80.25 317.8 81.85C317 83.45 316.05 84.65 314.95 85.45C314.65 85.65 313.7 85.8 312.1 85.9C310.5 86.1 309.45 86.2 308.95 86.2C308.35 86.2 307.8 86.1 307.3 85.9C306.9 85.7 306.4 85.5 305.8 85.3C303.8 84.5 301.85 83.4 299.95 82C298.15 80.5 297.25 78.65 297.25 76.45C297.25 75.95 297.2 75.45 297.1 74.95C297.1 74.45 297.15 73.9 297.25 73.3C297.25 72.1 297.45 70.65 297.85 68.95C298.15 67.45 298.4 65.95 298.6 64.45C298.9 62.95 299.15 61.45 299.35 59.95L299.2 60.1C298.8 60.5 298.4 60.9 298 61.3C297.6 61.7 297.25 62.15 296.95 62.65C296.35 63.45 295.85 64.1 295.45 64.6C295.15 65 294.6 65.55 293.8 66.25L292.75 67.15C292.05 67.65 291.45 68.25 290.95 68.95C290.45 69.55 289.95 70.25 289.45 71.05C289.05 71.55 288.65 72.1 288.25 72.7C287.95 73.2 287.55 73.7 287.05 74.2C286.35 74.9 285.65 75.6 284.95 76.3C284.25 76.9 283.65 77.6 283.15 78.4C282.75 79 282.2 79.9 281.5 81.1C280.8 82.3 280.05 83.4 279.25 84.4C278.55 85.5 277.85 86.15 277.15 86.35ZM285.1 49.15C292.4 44.75 298.95 39.45 304.75 33.25C310.65 26.95 315 20 317.8 12.4C317.9 12.1 317.95 11.75 317.95 11.35C317.95 11.05 317.9 10.8 317.8 10.6C317.8 10.3 317.8 9.95 317.8 9.55C317.8 9.55 317.55 9.55 317.05 9.55C316.95 9.55 316.75 9.55 316.45 9.55C316.25 9.55 316.05 9.5 315.85 9.4C315.05 9.8 314.1 10.25 313 10.75C311.9 11.25 311.05 11.75 310.45 12.25L310.15 12.7V12.85C309.95 13.05 309.85 13.15 309.85 13.15C309.35 13.65 308.85 14.15 308.35 14.65C307.85 15.05 307.35 15.45 306.85 15.85C306.15 16.25 305.5 16.85 304.9 17.65L304.45 18.25C304.05 18.75 303.6 19.25 303.1 19.75C302.6 20.15 302.1 20.55 301.6 20.95C301.3 21.15 300.65 21.9 299.65 23.2C298.75 24.5 297.85 25.85 296.95 27.25C296.05 28.55 295.45 29.5 295.15 30.1C295.05 30.4 294.95 30.65 294.85 30.85C294.75 31.05 294.55 31.25 294.25 31.45C294.25 31.85 294.15 32.1 293.95 32.2L294.25 32.95H293.5C293.4 33.35 293.1 34 292.6 34.9C292.1 35.7 291.65 36.2 291.25 36.4C291.15 36.8 290.65 37.9 289.75 39.7C288.95 41.4 288.1 43.2 287.2 45.1C286.3 46.9 285.6 48.25 285.1 49.15ZM365.63 83.5C364.63 83.5 363.48 83.25 362.18 82.75C360.88 82.35 359.83 81.8 359.03 81.1C356.63 78.9 355.23 76.4 354.83 73.6C354.43 70.7 354.13 67.75 353.93 64.75C353.53 65.25 352.98 65.85 352.28 66.55C351.68 67.15 351.13 67.7 350.63 68.2C350.33 68.5 350.03 68.9 349.73 69.4C349.43 69.8 349.13 70.2 348.83 70.6C348.13 71.3 347.48 71.85 346.88 72.25C346.28 72.55 345.73 72.95 345.23 73.45C345.03 73.65 344.63 74.15 344.03 74.95C343.83 75.35 343.53 75.7 343.13 76C342.73 76.2 342.38 76.5 342.08 76.9C341.38 77 340.78 77.35 340.28 77.95C339.88 78.45 339.43 79 338.93 79.6C337.93 80 336.83 80.55 335.63 81.25C334.53 81.85 333.43 82.15 332.33 82.15C330.93 82.15 329.38 81.8 327.68 81.1C326.08 80.4 324.63 79.45 323.33 78.25C322.03 76.95 321.28 75.55 321.08 74.05H320.93V71.35C320.93 69.75 321.13 68.7 321.53 68.2C321.73 67.9 321.88 67.55 321.98 67.15C322.08 66.65 322.18 66.25 322.28 65.95L324.38 62.95C324.68 62.45 325.43 61.55 326.63 60.25C327.93 58.95 329.28 57.65 330.68 56.35C332.08 55.05 333.08 54.15 333.68 53.65C334.48 52.95 335.68 52.15 337.28 51.25C338.88 50.35 340.48 49.45 342.08 48.55C343.78 47.65 345.13 46.95 346.13 46.45L346.73 46.3C347.23 45.9 348.03 45.5 349.13 45.1C350.33 44.6 351.18 44.3 351.68 44.2C352.28 44 353.23 43.9 354.53 43.9C355.83 43.8 356.83 43.7 357.53 43.6C358.13 43.6 358.63 43.5 359.03 43.3L362.18 44.2C363.28 44.3 364.58 44.8 366.08 45.7C367.58 46.6 368.38 47.75 368.48 49.15C368.68 49.85 368.63 50.4 368.33 50.8L366.98 50.05C366.28 48.95 365.28 48.3 363.98 48.1C362.78 47.8 361.53 47.65 360.23 47.65C357.43 47.65 354.43 48.35 351.23 49.75C348.03 51.05 344.98 52.8 342.08 55C339.18 57.1 336.58 59.4 334.28 61.9C332.08 64.4 330.48 66.8 329.48 69.1C329.38 69.4 329.28 69.7 329.18 70C329.18 70.3 329.13 70.55 329.03 70.75C328.73 71.75 328.43 72.7 328.13 73.6C327.93 74.5 327.88 75.5 327.98 76.6C327.98 77.3 328.08 77.7 328.28 77.8C328.48 77.9 328.88 78.25 329.48 78.85L330.68 79.3L331.73 78.85L332.93 78.4C333.73 78.1 334.38 77.7 334.88 77.2C335.28 77 335.63 76.9 335.93 76.9C336.23 76.8 336.38 76.7 336.38 76.6C337.08 76.4 337.43 76.15 337.43 75.85C337.53 75.45 337.83 75.05 338.33 74.65C339.83 73.25 341.28 71.9 342.68 70.6C344.18 69.2 345.58 67.75 346.88 66.25C347.58 65.45 348.43 64.55 349.43 63.55C350.53 62.55 351.53 61.55 352.43 60.55C352.73 60.25 352.98 59.95 353.18 59.65C353.48 59.25 353.73 58.9 353.93 58.6C354.43 57.8 355.18 56.7 356.18 55.3C357.18 53.8 358.33 53.05 359.63 53.05C359.83 52.95 360.13 52.9 360.53 52.9C361.53 52.9 362.33 53.3 362.93 54.1C363.53 54.8 363.83 55.55 363.83 56.35C363.83 57.35 363.63 58.3 363.23 59.2C362.83 60 362.53 60.85 362.33 61.75C361.93 64.05 361.73 66.3 361.73 68.5C361.73 69.2 361.73 69.9 361.73 70.6C361.73 71.3 361.78 72.05 361.88 72.85C362.18 74.95 363.23 76.85 365.03 78.55L365.63 78.7C367.03 77.9 367.98 77.1 368.48 76.3C369.08 75.5 369.88 74.5 370.88 73.3C370.88 73.3 370.98 73.25 371.18 73.15C371.38 72.95 371.53 72.85 371.63 72.85C372.03 72.85 372.23 73.05 372.23 73.45V73.6C372.23 74 372.18 74.4 372.08 74.8C371.98 75.1 371.88 75.5 371.78 76C371.68 77.2 371.08 78.75 369.98 80.65C368.98 82.55 367.53 83.5 365.63 83.5ZM387.336 93.55C386.636 93.55 385.636 93.2 384.336 92.5C383.136 91.9 382.286 91.4 381.786 91C380.086 89.3 379.236 86.75 379.236 83.35C379.236 80.85 379.586 78.3 380.286 75.7C380.986 73 381.786 70.5 382.686 68.2C383.586 65.8 384.336 63.95 384.936 62.65C385.136 62.35 385.336 61.95 385.536 61.45C385.736 60.85 386.036 60.2 386.436 59.5C386.936 58.3 387.536 57.15 388.236 56.05L386.286 56.65H385.536C384.536 57.25 383.436 57.7 382.236 58C381.136 58.2 380.036 58.45 378.936 58.75C377.736 59.05 376.586 59.5 375.486 60.1C374.386 60.6 373.286 61.1 372.186 61.6C372.186 61.7 372.036 61.75 371.736 61.75C371.236 61.75 370.786 61.5 370.386 61C369.986 60.4 369.786 59.9 369.786 59.5C369.786 59.2 370.386 58.85 371.586 58.45C372.686 57.95 374.036 57.45 375.636 56.95C377.336 56.35 378.886 55.85 380.286 55.45C381.786 54.95 382.786 54.65 383.286 54.55C384.086 54.35 384.786 54.15 385.386 53.95C385.986 53.75 386.586 53.55 387.186 53.35V53.2H387.786C388.586 53.2 389.186 53.05 389.586 52.75C390.486 50.75 391.886 48.15 393.786 44.95C395.686 41.65 397.786 38.75 400.086 36.25C400.586 35.75 400.836 35.15 400.836 34.45C400.936 33.75 401.236 33.1 401.736 32.5C402.536 31.7 403.186 31.05 403.686 30.55C404.286 30.05 405.086 29.5 406.086 28.9C406.686 29 407.686 29.35 409.086 29.95C410.486 30.55 411.786 31.2 412.986 31.9C414.286 32.6 414.936 33.25 414.936 33.85C414.936 34.15 414.436 34.7 413.436 35.5C412.436 36.2 411.386 36.9 410.286 37.6C409.186 38.3 408.436 38.8 408.036 39.1L406.986 39.4C405.786 40.4 404.686 41.45 403.686 42.55C402.686 43.65 401.636 44.7 400.536 45.7C399.936 46.3 399.436 47 399.036 47.8C398.736 48.5 398.286 49.15 397.686 49.75V50.5C397.386 50.7 397.136 50.95 396.936 51.25C399.636 51.05 401.736 51.15 403.236 51.55C404.836 51.85 406.436 52.7 408.036 54.1C408.236 54.3 408.336 54.55 408.336 54.85C408.336 55.15 408.186 55.3 407.886 55.3H407.286V55.15L407.136 55.3C404.736 54.7 402.436 54.4 400.236 54.4C399.336 54.4 398.486 54.45 397.686 54.55C396.886 54.65 396.186 54.75 395.586 54.85C395.586 54.85 395.286 55.3 394.686 56.2C394.086 57 393.486 57.85 392.886 58.75C392.286 59.55 391.986 60.05 391.986 60.25C391.786 60.55 391.386 61.25 390.786 62.35C390.286 63.45 389.786 64.6 389.286 65.8C388.986 66.4 388.686 67 388.386 67.6C388.186 68.1 387.986 68.55 387.786 68.95L387.036 70.3C387.036 71 386.886 71.75 386.586 72.55C386.386 73.25 386.186 73.9 385.986 74.5H385.836V74.8C385.836 75.4 385.686 76.05 385.386 76.75C385.186 77.35 384.986 77.9 384.786 78.4C384.286 80.7 384.036 82.85 384.036 84.85C384.036 85.35 384.036 85.85 384.036 86.35C384.036 86.85 384.086 87.35 384.186 87.85C384.386 88.55 384.586 89.15 384.786 89.65C385.086 90.15 385.536 90.55 386.136 90.85C386.436 90.85 386.686 90.9 386.886 91L388.086 91.15C389.286 91.35 389.886 91.65 389.886 92.05C389.886 92.75 389.536 93.15 388.836 93.25C388.236 93.45 387.736 93.55 387.336 93.55ZM474.405 88.45C473.405 88.45 472.005 88.15 470.205 87.55C468.505 87.05 467.605 86.3 467.505 85.3C467.405 84.2 467.555 83.2 467.955 82.3C468.455 81.4 468.905 80.45 469.305 79.45L473.805 69.25C477.005 61.95 480.555 55.25 484.455 49.15C488.455 42.95 492.055 36.2 495.255 28.9C496.655 25.7 498.355 22.3 500.355 18.7C502.355 15.1 503.355 11.5 503.355 7.9C503.355 6.2 503.005 5.14999 502.305 4.74999C501.705 4.24999 500.705 3.99999 499.305 3.99999C497.405 3.99999 495.505 4.39999 493.605 5.2C491.805 5.9 490.055 6.65 488.355 7.45C483.055 9.95 478.355 12.75 474.255 15.85C470.255 18.85 466.505 22.2 463.005 25.9C459.505 29.5 455.955 33.45 452.355 37.75C451.055 39.25 449.505 41.15 447.705 43.45C445.905 45.65 444.305 48 442.905 50.5C441.505 52.9 440.805 55.15 440.805 57.25C440.805 58.75 441.405 59.7 442.605 60.1C443.805 60.4 445.055 60.55 446.355 60.55C447.155 60.55 447.905 60.45 448.605 60.25C449.405 60.05 450.155 59.9 450.855 59.8L453.705 59.35C457.205 58.75 459.755 58.25 461.355 57.85C462.955 57.45 464.005 57.1 464.505 56.8C465.105 56.5 465.555 56.35 465.855 56.35C466.055 56.35 466.355 56.35 466.755 56.35C467.155 56.25 467.755 56.15 468.555 56.05C468.855 56.15 469.105 56.2 469.305 56.2C469.505 56.2 469.655 56.25 469.755 56.35C469.955 56.55 470.055 56.75 470.055 56.95C470.055 57.25 469.805 57.5 469.305 57.7C468.905 57.8 468.455 57.85 467.955 57.85C467.055 58.25 465.705 58.85 463.905 59.65C462.205 60.45 460.205 61.25 457.905 62.05C455.705 62.85 453.355 63.6 450.855 64.3C448.455 64.9 446.205 65.2 444.105 65.2C442.505 65.2 440.755 64.95 438.855 64.45C436.955 63.85 435.305 63 433.905 61.9C432.505 60.7 431.705 59.2 431.505 57.4C431.305 55 431.755 52.7 432.855 50.5C434.055 48.3 435.505 46.2 437.205 44.2C438.905 42.2 440.455 40.4 441.855 38.8C442.455 38.2 442.955 37.55 443.355 36.85C443.755 36.05 444.255 35.4 444.855 34.9C445.355 34.4 445.905 33.9 446.505 33.4C447.205 32.9 447.805 32.4 448.305 31.9C449.405 30.9 450.355 29.9 451.155 28.9C452.055 27.9 453.155 27.05 454.455 26.35C454.655 26.05 454.855 25.75 455.055 25.45C455.255 25.05 455.455 24.7 455.655 24.4C456.155 23.6 456.855 22.9 457.755 22.3C458.755 21.6 459.605 20.95 460.305 20.35C461.605 19.25 462.905 18.3 464.205 17.5C465.605 16.7 466.955 15.85 468.255 14.95C470.355 13.45 472.455 12 474.555 10.6C476.755 9.2 479.055 7.95 481.455 6.84999C481.755 6.65 482.105 6.5 482.505 6.4C482.905 6.2 483.305 5.95 483.705 5.65L483.855 5.8C486.655 3.69999 490.105 2.39999 494.205 1.89999C494.605 1.8 495.005 1.7 495.405 1.6C495.805 1.5 496.205 1.4 496.605 1.29999C499.505 1.29999 502.305 2.14999 505.005 3.85C507.705 5.55 509.055 8.15 509.055 11.65C509.055 14.05 508.505 16.35 507.405 18.55C506.405 20.65 505.355 22.7 504.255 24.7C503.555 25.8 502.955 26.95 502.455 28.15C501.955 29.35 501.405 30.5 500.805 31.6C498.505 35.8 496.155 40 493.755 44.2C491.355 48.3 489.155 52.55 487.155 56.95C486.655 57.95 485.955 59.35 485.055 61.15C484.155 62.85 483.605 64.25 483.405 65.35C486.605 60.95 489.555 56.45 492.255 51.85C495.055 47.25 498.055 42.85 501.255 38.65C502.055 37.55 502.855 36.5 503.655 35.5C504.455 34.4 505.205 33.35 505.905 32.35C507.005 31.05 508.205 29.6 509.505 28C510.805 26.3 512.205 24.85 513.705 23.65C515.305 22.45 517.005 21.85 518.805 21.85C520.105 21.85 521.705 22.2 523.605 22.9C525.605 23.6 527.455 24.5 529.155 25.6C530.855 26.7 531.955 27.85 532.455 29.05C532.655 29.55 532.805 30.2 532.905 31C533.005 31.8 533.055 32.6 533.055 33.4C533.055 34.3 533.005 35.2 532.905 36.1C532.905 37 532.855 37.75 532.755 38.35C532.155 41.75 531.655 45.25 531.255 48.85C530.955 52.45 530.805 56.15 530.805 59.95C530.805 63.35 530.955 66.7 531.255 70C531.355 70.8 531.505 72.2 531.705 74.2C531.905 76.1 532.355 77.9 533.055 79.6C533.755 81.3 534.705 82.15 535.905 82.15C537.005 82.15 537.955 81.3 538.755 79.6C539.655 77.9 540.305 76.6 540.705 75.7C541.205 74.7 541.655 74.15 542.055 74.05C542.255 74.35 542.355 74.7 542.355 75.1C542.455 75.8 542.455 77.15 542.355 79.15C542.255 81.15 541.905 82.5 541.305 83.2C540.905 83.6 540.155 83.85 539.055 83.95C538.055 84.05 537.255 84.1 536.655 84.1C534.155 84.3 532.055 83.75 530.355 82.45C528.755 81.25 527.455 79.7 526.455 77.8C525.455 75.9 524.705 74 524.205 72.1C523.805 70.1 523.555 68.5 523.455 67.3C523.255 64.8 523.105 62.25 523.005 59.65C522.905 57.05 522.855 54.5 522.855 52C522.855 47.3 523.005 42.7 523.305 38.2C523.305 37.7 523.355 36.95 523.455 35.95C523.555 34.85 523.605 33.7 523.605 32.5C523.605 30.6 523.405 28.85 523.005 27.25C522.705 25.55 521.955 24.7 520.755 24.7C519.955 24.7 519.105 25.05 518.205 25.75C517.305 26.45 516.555 27.05 515.955 27.55C509.755 33.35 504.355 39.8 499.755 46.9C495.155 53.9 490.805 61 486.705 68.2C485.105 71 483.705 73.9 482.505 76.9C481.405 79.8 480.105 82.7 478.605 85.6C478.205 86.3 477.655 86.95 476.955 87.55C476.355 88.15 475.505 88.45 474.405 88.45ZM548.711 119.5C546.711 119.5 544.361 119 541.661 118C538.961 117.1 536.611 115.75 534.611 113.95C532.511 112.25 531.361 110.3 531.161 108.1C531.161 107.9 531.211 107.75 531.311 107.65C531.411 107.15 531.461 106.65 531.461 106.15C531.361 105.75 531.361 105.35 531.461 104.95C531.461 104.45 531.511 103.9 531.611 103.3C531.711 102.8 531.761 102.25 531.761 101.65C531.761 101.45 531.761 101.2 531.761 100.9C531.661 100.7 531.611 100.45 531.611 100.15C531.611 99.35 531.811 98.7 532.211 98.2L532.811 97.9H533.261C533.361 99.1 533.411 100 533.411 100.6C533.411 101.3 533.611 102.2 534.011 103.3L534.911 105.7L535.661 107.05L535.811 107.65C536.011 108.15 536.311 108.65 536.711 109.15C537.111 109.75 537.511 110.3 537.911 110.8C538.611 111.7 539.111 112.55 539.411 113.35C540.911 114.65 542.311 115.55 543.611 116.05C544.911 116.65 546.611 116.95 548.711 116.95C550.511 116.95 552.561 116.2 554.861 114.7C557.261 113.2 559.061 111.85 560.261 110.65C561.661 109.25 562.861 107.7 563.861 106C564.961 104.4 566.011 102.75 567.011 101.05C570.511 95.05 573.311 89.05 575.411 83.05C577.511 77.05 579.211 70.7 580.511 64C580.111 64.7 579.661 65.35 579.161 65.95C578.661 66.55 578.161 67.1 577.661 67.6C577.261 68.2 576.811 68.8 576.311 69.4C575.811 70 575.311 70.7 574.811 71.5H574.361V71.95C573.161 72.45 571.911 73.45 570.611 74.95C569.411 76.45 568.261 77.6 567.161 78.4C565.861 79.4 565.011 80 564.611 80.2C564.311 80.4 564.111 80.55 564.011 80.65C564.011 80.65 563.811 80.95 563.411 81.55C562.711 81.65 562.061 81.85 561.461 82.15C560.961 82.55 560.361 82.95 559.661 83.35C559.061 83.65 558.361 83.95 557.561 84.25C556.761 84.55 555.811 84.7 554.711 84.7C553.711 84.7 552.311 84.1 550.511 82.9C548.711 81.8 547.461 80.85 546.761 80.05C546.561 79.75 546.211 79.5 545.711 79.3C545.211 79 544.811 78.65 544.511 78.25C544.111 77.75 543.661 77.05 543.161 76.15C542.661 75.25 542.411 74.45 542.411 73.75C542.311 73.15 542.411 72.15 542.711 70.75C543.011 69.25 543.411 67.7 543.911 66.1C544.511 64.4 545.161 62.95 545.861 61.75C546.561 60.45 547.261 59.7 547.961 59.5C548.161 59.3 548.461 59.1 548.861 58.9C549.261 58.6 549.461 58.35 549.461 58.15V58L548.861 58.15C549.061 57.35 549.711 56.2 550.811 54.7C551.911 53.2 553.261 51.65 554.861 50.05C556.461 48.35 557.961 46.85 559.361 45.55C560.861 44.25 562.011 43.45 562.811 43.15C564.011 42.55 565.411 41.95 567.011 41.35C568.611 40.65 570.161 40.05 571.661 39.55V39.7C572.461 39.5 573.061 39.4 573.461 39.4C574.161 39.4 575.061 39.6 576.161 40C577.361 40.3 578.311 40.55 579.011 40.75C580.111 41.05 581.361 41.7 582.761 42.7C584.261 43.6 585.511 44.65 586.511 45.85C587.611 47.05 588.161 48.25 588.161 49.45V49.9C588.161 50.4 588.061 50.9 587.861 51.4C587.761 51.9 587.711 52.4 587.711 52.9C588.111 53.1 588.811 53.5 589.811 54.1C590.811 54.6 591.311 55.1 591.311 55.6C591.411 56.2 591.311 57.3 591.011 58.9C590.811 60.4 590.561 62 590.261 63.7C589.961 65.3 589.661 66.5 589.361 67.3C589.061 68.3 588.811 69.4 588.611 70.6C588.511 71.7 588.311 72.8 588.011 73.9C587.611 75.2 587.111 76.45 586.511 77.65C585.911 78.85 585.461 80.1 585.161 81.4L584.711 83.2C584.511 83.9 584.211 84.6 583.811 85.3C583.511 86 583.211 86.75 582.911 87.55C582.611 88.25 582.061 89.2 581.261 90.4C580.561 91.6 580.161 92.45 580.061 92.95C579.761 94.15 579.211 95.25 578.411 96.25C577.711 97.25 576.961 98.15 576.161 98.95C576.061 99.65 575.461 100.75 574.361 102.25C573.361 103.75 572.761 104.65 572.561 104.95C572.261 105.05 572.111 105.2 572.111 105.4C572.011 105.6 571.611 106.15 570.911 107.05C570.311 107.95 569.911 108.5 569.711 108.7C569.611 109.1 569.411 109.4 569.111 109.6C568.811 109.8 568.561 110 568.361 110.2C567.861 110.6 567.411 111.1 567.011 111.7C566.611 112.3 566.161 112.85 565.661 113.35C565.461 113.45 565.161 113.55 564.761 113.65C564.361 113.85 563.911 114.1 563.411 114.4C561.211 115.7 558.861 116.85 556.361 117.85C553.961 118.95 551.411 119.5 548.711 119.5ZM552.161 80.95C552.761 80.95 553.511 80.85 554.411 80.65C555.411 80.35 556.111 80 556.511 79.6L556.661 79.45C556.861 79.25 557.061 79.15 557.261 79.15C559.161 78.05 560.861 76.9 562.361 75.7C563.861 74.5 565.411 73.2 567.011 71.8C567.211 71.6 567.411 71.4 567.611 71.2C567.911 70.9 568.161 70.65 568.361 70.45L569.711 68.95C570.211 68.45 570.711 67.95 571.211 67.45C571.711 66.95 572.261 66.55 572.861 66.25L573.011 66.1C574.111 65 575.161 63.95 576.161 62.95C577.161 61.85 578.061 60.7 578.861 59.5C579.061 59.2 579.261 58.9 579.461 58.6C579.661 58.2 579.861 57.85 580.061 57.55C580.561 56.95 581.011 56.4 581.411 55.9C581.911 55.4 582.361 54.9 582.761 54.4C582.861 54.4 582.911 54.3 582.911 54.1C583.111 53.9 583.261 53.7 583.361 53.5C583.461 53.3 583.561 53.15 583.661 53.05C583.861 52.85 584.161 52.7 584.561 52.6C584.961 52.5 585.311 52.4 585.611 52.3C585.511 51.4 585.011 50.1 584.111 48.4C583.311 46.6 582.611 45.55 582.011 45.25C581.611 45.05 581.011 44.9 580.211 44.8C579.511 44.7 578.911 44.65 578.411 44.65L576.161 45.1C574.361 45.5 572.661 46.25 571.061 47.35C569.561 48.35 568.061 49.4 566.561 50.5L563.411 52.75C562.511 53.45 561.711 54.25 561.011 55.15C560.311 55.95 559.511 56.75 558.611 57.55C558.211 57.95 557.911 58.45 557.711 59.05C557.511 59.55 557.211 60.05 556.811 60.55C553.611 64.15 551.361 68.2 550.061 72.7C549.861 73.4 549.661 74.1 549.461 74.8C549.261 75.5 549.161 76.25 549.161 77.05C549.161 78.05 549.361 78.95 549.761 79.75C550.261 80.55 551.061 80.95 552.161 80.95ZM600.416 83.65C598.516 83.65 597.016 83 595.916 81.7C594.916 80.3 594.416 78.75 594.416 77.05C594.416 74.75 594.866 72.2 595.766 69.4C596.666 66.5 597.516 64.1 598.316 62.2C598.516 61.5 598.816 60.9 599.216 60.4C599.616 59.8 599.816 59.1 599.816 58.3C600.116 58 600.416 57.45 600.716 56.65C601.116 55.85 601.366 55.25 601.466 54.85C601.066 55.15 600.566 55.6 599.966 56.2C599.366 56.8 598.816 57.2 598.316 57.4L597.866 57.25C597.566 56.85 597.566 56.4 597.866 55.9C598.066 55.7 598.316 55.4 598.616 55C599.016 54.5 599.416 54.05 599.816 53.65C600.216 53.15 600.566 52.7 600.866 52.3C601.266 51.9 601.516 51.6 601.616 51.4C602.316 50.6 602.866 50 603.266 49.6C603.666 49.1 604.366 48.5 605.366 47.8C605.866 47.9 606.666 48.1 607.766 48.4C608.966 48.6 610.116 48.95 611.216 49.45C612.316 49.85 612.866 50.4 612.866 51.1C612.966 51.7 612.566 52.65 611.666 53.95C610.866 55.15 609.966 56.35 608.966 57.55C608.066 58.75 607.416 59.7 607.016 60.4C606.316 61.5 605.766 62.45 605.366 63.25C604.966 64.05 604.616 64.8 604.316 65.5L602.216 70.9C601.816 71.9 601.516 72.8 601.316 73.6C601.116 74.4 600.916 75.35 600.716 76.45C600.716 76.55 600.666 76.75 600.566 77.05C600.566 77.25 600.566 77.45 600.566 77.65C600.566 78.05 600.616 78.45 600.716 78.85C600.916 79.25 601.216 79.45 601.616 79.45C602.016 79.45 602.566 79.15 603.266 78.55C605.366 76.95 607.116 75.35 608.516 73.75C609.316 72.95 610.066 72.15 610.766 71.35C611.466 70.55 612.266 69.65 613.166 68.65C615.366 66.25 617.566 63.9 619.766 61.6C622.066 59.2 624.216 56.8 626.216 54.4C626.716 53.8 627.266 53.05 627.866 52.15C628.466 51.15 629.116 50.65 629.816 50.65H629.966C630.566 50.65 631.666 50.95 633.266 51.55C634.866 52.05 635.666 52.6 635.666 53.2V53.8C635.666 54.7 635.416 55.5 634.916 56.2C634.616 56.6 634.366 56.95 634.166 57.25C633.966 57.55 633.766 57.95 633.566 58.45C633.466 59.05 633.316 59.55 633.116 59.95C632.916 60.35 632.666 60.85 632.366 61.45C631.466 62.95 630.616 65.05 629.816 67.75C629.016 70.45 628.666 72.65 628.766 74.35C628.766 74.85 628.816 75.7 628.916 76.9C629.116 78 629.416 78.65 629.816 78.85C630.816 78.75 631.616 78.1 632.216 76.9C632.916 75.7 633.516 74.75 634.016 74.05C634.516 73.35 635.116 73 635.816 73C635.916 73.3 635.966 73.7 635.966 74.2C635.966 74.6 635.866 75 635.666 75.4C635.466 75.8 635.266 76.25 635.066 76.75C634.866 77.35 634.666 77.95 634.466 78.55C634.366 79.05 634.116 79.55 633.716 80.05C633.116 81.15 632.016 81.7 630.416 81.7C628.116 81.7 626.016 81.05 624.116 79.75C622.316 78.45 621.316 76.9 621.116 75.1C621.016 73.2 621.216 71.05 621.716 68.65C622.316 66.25 622.966 64.2 623.666 62.5C623.666 62.4 623.666 62.3 623.666 62.2C623.766 62.1 623.816 62 623.816 61.9C623.216 62.5 622.666 63.15 622.166 63.85C621.666 64.55 621.016 65.1 620.216 65.5L618.866 66.7C617.866 68.6 616.616 70.3 615.116 71.8C613.616 73.3 612.166 74.85 610.766 76.45C609.466 78.05 607.966 79.65 606.266 81.25C604.666 82.85 602.716 83.65 600.416 83.65ZM628.329 127.9C625.829 127.9 624.079 127.05 623.079 125.35C622.079 123.75 621.579 122 621.579 120.1C621.579 118.1 621.929 116.15 622.629 114.25C623.329 112.35 624.179 110.6 625.179 109C625.979 107.6 626.829 106.15 627.729 104.65C628.529 103.15 629.429 101.75 630.429 100.45C632.829 97.15 635.929 93.7 639.729 90.1C643.629 86.6 647.279 83.7 650.679 81.4C652.379 80.3 654.429 79.15 656.829 77.95C659.329 76.65 661.529 75.6 663.429 74.8C665.329 73.9 666.279 73.45 666.279 73.45C667.179 73.15 668.079 72.7 668.979 72.1C669.979 71.6 670.729 71.35 671.229 71.35C671.329 71.25 671.429 71.15 671.529 71.05C671.629 70.95 671.729 70.85 671.829 70.75C672.529 69.95 672.979 68.75 673.179 67.15C673.379 65.55 673.679 64.25 674.079 63.25C674.279 62.75 674.429 62.4 674.529 62.2C674.729 61.9 674.829 61.45 674.829 60.85V59.95C674.829 59.45 674.879 59 674.979 58.6C675.079 58.2 675.179 57.8 675.279 57.4C675.379 57.1 675.429 56.45 675.429 55.45C674.729 55.65 674.129 56.05 673.629 56.65C673.229 57.25 672.779 57.8 672.279 58.3C671.379 59.1 670.529 60 669.729 61C669.029 62 668.229 62.9 667.329 63.7C665.929 65 664.029 66.8 661.629 69.1C659.229 71.4 656.729 73.45 654.129 75.25C651.529 77.05 649.229 77.95 647.229 77.95C645.929 77.95 644.479 77.45 642.879 76.45C641.279 75.45 640.179 74.45 639.579 73.45V73.15C639.579 72.85 639.529 72.55 639.429 72.25C639.329 71.85 639.279 71.5 639.279 71.2C639.279 69.3 639.729 67.2 640.629 64.9C641.529 62.6 642.579 60.45 643.779 58.45C644.979 56.45 646.079 55 647.079 54.1L647.529 53.5C647.929 53 648.279 52.55 648.579 52.15C648.979 51.75 649.379 51.35 649.779 50.95C650.579 50.05 651.379 49.3 652.179 48.7C653.079 48.1 654.079 47.8 655.179 47.8C655.579 47.8 656.429 48.05 657.729 48.55C659.029 49.05 660.279 49.6 661.479 50.2C662.679 50.7 663.279 51.15 663.279 51.55C663.379 51.95 663.179 52.15 662.679 52.15H662.229L661.929 52C661.829 52 661.729 52 661.629 52C661.529 51.9 661.379 51.85 661.179 51.85C660.179 51.85 658.779 52.7 656.979 54.4C655.279 56 653.529 58.05 651.729 60.55C649.929 62.95 648.429 65.3 647.229 67.6C646.029 69.8 645.429 71.5 645.429 72.7C645.429 73.2 645.629 73.45 646.029 73.45C647.029 73.45 648.079 73.1 649.179 72.4C650.379 71.7 651.379 71.1 652.179 70.6H652.479C656.979 67.3 660.979 64.05 664.479 60.85C666.379 59.15 668.279 57.45 670.179 55.75C672.079 54.05 673.979 52.25 675.879 50.35L676.779 49.45L677.679 48.4C678.279 47.7 678.979 47.05 679.779 46.45C680.679 46.65 681.979 46.95 683.679 47.35C685.479 47.75 686.429 48.65 686.529 50.05C686.529 50.55 686.429 51.05 686.229 51.55C686.129 51.95 686.029 52.4 685.929 52.9C685.829 53.9 685.679 54.9 685.479 55.9C685.279 56.9 685.079 57.9 684.879 58.9C684.779 59.5 684.579 60.1 684.279 60.7C684.079 61.3 683.879 61.9 683.679 62.5C683.479 63.2 683.329 63.95 683.229 64.75C683.229 65.55 683.079 66.35 682.779 67.15C682.679 67.45 682.429 68 682.029 68.8C681.629 69.5 681.429 70 681.429 70.3C681.429 70.4 681.629 70.45 682.029 70.45C682.329 70.45 682.579 70.45 682.779 70.45C683.079 70.35 683.279 70.3 683.379 70.3C685.779 70.3 687.929 71.1 689.829 72.7C690.029 72.8 690.129 72.9 690.129 73C690.229 73 690.329 73 690.429 73V73.3C690.429 73.8 690.129 74.2 689.529 74.5C688.929 74.8 688.529 74.6 688.329 73.9C688.229 73.6 687.979 73.45 687.579 73.45C687.179 73.35 686.829 73.3 686.529 73.3C685.529 73.3 684.129 73.65 682.329 74.35C680.629 74.95 679.829 75.85 679.929 77.05C679.429 77.35 678.679 78.2 677.679 79.6C676.779 81 676.279 81.95 676.179 82.45C676.079 82.85 676.029 83.25 676.029 83.65C676.029 84.05 675.829 84.45 675.429 84.85C675.029 85.25 674.679 85.65 674.379 86.05C674.179 86.45 674.079 87.05 674.079 87.85C673.479 88.05 672.829 88.6 672.129 89.5C671.429 90.4 671.129 91.15 671.229 91.75L670.779 91.9L671.079 92.5C670.279 92.8 669.879 93.2 669.879 93.7C669.279 93.9 668.779 94.4 668.379 95.2C668.079 96 667.629 96.6 667.029 97V97.6L665.829 98.2L665.979 98.65C665.579 98.95 665.179 99.25 664.779 99.55C664.479 99.95 664.179 100.35 663.879 100.75C663.479 101.15 663.129 101.5 662.829 101.8C662.629 102.1 662.429 102.35 662.229 102.55V103.15C661.929 103.25 661.779 103.5 661.779 103.9C661.279 104 660.829 104.25 660.429 104.65L659.679 105.4L659.829 105.7C659.529 105.9 659.229 106.1 658.929 106.3C658.729 106.5 658.579 106.8 658.479 107.2H658.029C657.729 107.8 657.229 108.4 656.529 109C655.929 109.7 655.379 110.3 654.879 110.8L652.329 113.95C651.529 114.65 650.629 115.3 649.629 115.9C648.729 116.5 647.879 117.2 647.079 118C646.779 118.2 646.479 118.45 646.179 118.75C645.979 119.05 645.729 119.35 645.429 119.65C645.029 120.05 644.479 120.4 643.779 120.7C643.179 121.1 642.629 121.55 642.129 122.05C640.529 123.15 638.429 124.4 635.829 125.8C633.129 127.2 630.629 127.9 628.329 127.9ZM632.079 123.25C632.579 123.05 633.329 122.7 634.329 122.2C635.329 121.8 636.229 121.35 637.029 120.85C637.929 120.35 638.379 119.95 638.379 119.65C639.679 118.85 640.829 117.9 641.829 116.8C642.929 115.8 643.979 114.8 644.979 113.8C646.079 112.8 647.179 111.8 648.279 110.8C649.379 109.8 650.379 108.75 651.279 107.65C651.879 106.85 652.429 106.05 652.929 105.25C653.529 104.45 654.129 103.7 654.729 103C655.529 101.9 656.379 100.8 657.279 99.7C658.279 98.7 659.179 97.65 659.979 96.55C660.879 95.45 661.679 94.25 662.379 92.95C663.179 91.65 663.979 90.4 664.779 89.2C665.279 88.4 665.829 87.55 666.429 86.65C667.129 85.75 667.679 84.85 668.079 83.95C668.279 83.65 668.429 83.3 668.529 82.9C668.729 82.6 668.929 82.25 669.129 81.85C669.529 81.15 670.079 80.1 670.779 78.7C671.579 77.2 671.979 76.1 671.979 75.4C670.779 76 669.379 76.6 667.779 77.2C666.979 77.6 666.179 78 665.379 78.4C664.679 78.7 664.329 78.95 664.329 79.15C663.829 79.25 662.629 79.75 660.729 80.65C658.929 81.55 657.129 82.5 655.329 83.5C653.529 84.5 652.379 85.25 651.879 85.75C649.979 87.15 648.129 88.65 646.329 90.25C644.629 91.85 642.929 93.45 641.229 95.05C640.829 95.45 640.479 95.85 640.179 96.25C639.879 96.65 639.579 97.1 639.279 97.6C639.179 97.8 639.029 97.95 638.829 98.05C638.729 98.25 638.629 98.45 638.529 98.65C638.329 98.85 637.929 99.4 637.329 100.3C636.729 101.2 636.179 102.1 635.679 103C635.179 103.9 634.879 104.5 634.779 104.8C633.879 105.7 632.829 107.2 631.629 109.3C630.429 111.4 629.579 113.1 629.079 114.4L628.029 116.8C627.729 117.2 627.579 117.9 627.579 118.9C627.479 119.9 627.429 120.7 627.429 121.3C627.529 122.2 627.879 122.75 628.479 122.95C629.079 123.25 630.279 123.35 632.079 123.25ZM704.181 83.05C702.381 83.05 700.431 82.7 698.331 82C696.331 81.3 694.581 80.25 693.081 78.85C691.681 77.45 690.881 75.75 690.681 73.75C690.681 73.25 690.681 72.75 690.681 72.25C690.781 71.75 690.781 71.3 690.681 70.9C690.681 70.6 690.381 70.3 689.781 70L689.331 69.55C688.931 69.35 688.531 69.1 688.131 68.8C687.731 68.4 687.531 67.95 687.531 67.45C687.831 67.35 688.081 67.3 688.281 67.3C688.781 67.3 689.231 67.35 689.631 67.45C690.131 67.55 690.581 67.6 690.981 67.6C690.881 67.6 690.931 67.4 691.131 67C691.131 66.8 691.181 66.6 691.281 66.4C691.381 66.1 691.481 65.9 691.581 65.8C691.681 65.8 691.831 65.45 692.031 64.75C692.231 63.95 692.381 63.5 692.481 63.4C693.881 59.1 695.781 55.45 698.181 52.45C700.681 49.35 704.081 47.05 708.381 45.55C708.781 45.45 709.131 45.4 709.431 45.4C709.831 45.3 710.231 45.25 710.631 45.25C711.431 45.25 712.481 45.55 713.781 46.15C715.081 46.65 716.231 47.35 717.231 48.25C718.331 49.05 718.931 49.9 719.031 50.8C719.031 51.2 719.031 51.55 719.031 51.85C719.131 52.15 719.181 52.5 719.181 52.9C719.181 53.5 719.031 54.2 718.731 55L717.831 55.45C717.631 55.85 717.431 56.15 717.231 56.35L716.331 57.4C715.531 58.2 715.231 58.75 715.431 59.05L715.131 59.2C715.131 59.2 715.131 59.25 715.131 59.35C715.131 59.35 715.081 59.35 714.981 59.35L715.131 59.2L714.981 59.35V59.5L714.231 59.65C713.831 59.95 713.481 60.3 713.181 60.7C712.881 61 712.581 61.35 712.281 61.75C710.781 63.35 708.831 64.75 706.431 65.95C704.031 67.05 701.831 68.05 699.831 68.95C699.531 69.05 699.081 69.2 698.481 69.4C697.981 69.5 697.631 69.7 697.431 70C697.031 70.5 696.781 71.15 696.681 71.95C696.581 72.75 696.531 73.5 696.531 74.2C696.731 75.4 697.031 76.55 697.431 77.65C697.931 78.75 698.931 79.3 700.431 79.3H701.781C702.281 79.3 702.781 79.25 703.281 79.15C703.881 79.05 704.481 78.95 705.081 78.85L706.131 78.25L706.281 78.4C706.881 78.2 707.931 77.75 709.431 77.05C710.931 76.35 712.381 75.65 713.781 74.95C715.181 74.15 716.031 73.6 716.331 73.3L716.481 73.15L716.631 72.85L717.081 72.4C718.881 71.1 720.631 70 722.331 69.1C724.031 68.1 725.681 66.8 727.281 65.2L727.581 65.5H728.031C727.931 66.2 727.681 66.75 727.281 67.15C726.881 67.45 726.431 67.85 725.931 68.35L725.481 69.1C724.281 71 722.431 72.9 719.931 74.8C717.531 76.7 715.331 78.3 713.331 79.6C712.631 80 711.931 80.5 711.231 81.1C710.531 81.6 709.731 82 708.831 82.3C707.131 82.8 705.581 83.05 704.181 83.05ZM699.381 64.45C699.981 64.45 700.381 64.45 700.581 64.45C700.881 64.35 701.281 64.25 701.781 64.15C703.781 63.05 705.631 61.75 707.331 60.25C709.131 58.75 710.831 57.25 712.431 55.75C712.631 55.05 713.131 54.45 713.931 53.95L714.531 53.5C714.731 53.3 714.881 53.1 714.981 52.9C715.181 52.7 715.281 52.5 715.281 52.3C715.381 52.2 715.331 51.85 715.131 51.25L714.981 50.5V50.2C714.681 50.1 714.281 50.05 713.781 50.05C713.081 50.35 712.381 50.8 711.681 51.4C710.981 52 710.231 52.35 709.431 52.45C709.031 53.05 708.181 53.85 706.881 54.85C706.181 55.45 705.481 56.05 704.781 56.65C704.181 57.15 703.781 57.5 703.581 57.7C702.881 58.4 702.031 59.5 701.031 61C700.031 62.4 699.481 63.55 699.381 64.45ZM731.813 80.2C731.113 80.2 730.263 79.9 729.263 79.3C728.363 78.7 727.863 78 727.763 77.2C727.663 75.3 727.963 73 728.663 70.3C729.463 67.5 730.463 64.6 731.663 61.6C732.863 58.6 734.113 55.8 735.413 53.2C736.713 50.5 737.813 48.3 738.713 46.6C739.213 45.6 739.613 44.65 739.913 43.75C740.313 42.75 740.863 41.8 741.563 40.9C742.363 40.9 743.363 41.1 744.563 41.5C745.863 41.9 747.013 42.4 748.013 43C749.113 43.6 749.663 44.3 749.663 45.1C749.663 46 749.113 47 748.013 48.1C747.013 49.1 746.213 49.95 745.613 50.65C743.513 53.05 741.363 55.6 739.163 58.3C737.063 60.9 735.413 63.7 734.213 66.7C733.913 67.4 733.663 68.1 733.463 68.8C733.363 69.5 733.113 70.15 732.713 70.75C732.613 71.05 732.463 71.35 732.263 71.65C732.063 71.95 731.963 72.3 731.963 72.7L731.813 74.35C732.613 73.45 733.863 72 735.563 70C737.363 68 739.263 65.9 741.263 63.7C743.363 61.4 745.313 59.4 747.113 57.7C748.913 56 750.163 55.05 750.863 54.85C751.263 54.65 751.663 54.55 752.063 54.55C753.863 54.55 755.563 55.15 757.163 56.35C758.863 57.45 759.763 58.75 759.863 60.25C759.863 60.65 759.763 61.3 759.563 62.2C759.463 63.1 759.363 63.8 759.263 64.3C759.163 65.3 759.013 66.4 758.813 67.6C758.713 68.7 758.663 69.85 758.663 71.05C758.663 72.85 758.963 74.4 759.563 75.7C760.163 76.9 761.263 77.5 762.863 77.5C763.263 77.3 763.713 77.15 764.213 77.05C764.813 76.85 765.313 76.75 765.713 76.75C766.213 76.75 766.563 77.05 766.763 77.65C766.763 78.25 766.413 78.75 765.713 79.15C765.013 79.55 764.413 79.75 763.913 79.75H761.963C761.263 79.75 760.613 79.75 760.013 79.75C759.413 79.65 758.813 79.5 758.213 79.3C757.213 79.1 756.263 78.65 755.363 77.95C754.463 77.25 753.763 76.25 753.263 74.95C752.763 73.45 752.313 72.15 751.913 71.05C751.613 69.95 751.463 68.6 751.463 67V62.8C751.463 62.1 751.463 61.45 751.463 60.85C751.563 60.25 751.563 59.8 751.463 59.5C750.563 59.8 749.613 60.55 748.613 61.75C747.613 62.95 746.813 63.9 746.213 64.6C745.813 65 745.463 65.25 745.163 65.35L744.713 65.8C744.313 66.2 743.813 66.8 743.213 67.6C742.613 68.3 742.063 68.9 741.563 69.4C741.263 69.7 741.013 69.9 740.813 70L740.063 70.6L739.013 71.65C738.413 72.75 737.713 73.75 736.913 74.65C736.213 75.45 735.513 76.4 734.813 77.5C734.613 77.7 734.513 77.85 734.513 77.95L734.213 78.55C733.913 79.05 733.613 79.45 733.313 79.75C733.013 80.05 732.513 80.2 731.813 80.2Z" fill="#B68973"/>
</svg>
