<svg width="512" height="512" viewBox="0 0 512 512" fill="none" xmlns="http://www.w3.org/2000/svg">
<g clip-path="url(#clip0_18_3)">
<path d="M214.406 421.5C211.073 421.5 206.406 420.5 200.406 418.5C194.74 416.833 191.74 414.333 191.406 411C191.073 407.333 191.573 404 192.906 401C194.573 398 196.073 394.833 197.406 391.5L212.406 357.5C223.073 333.167 234.906 310.833 247.906 290.5C261.24 269.833 273.24 247.333 283.906 223C288.573 212.333 294.24 201 300.906 189C307.573 177 310.906 165 310.906 153C310.906 147.333 309.74 143.833 307.406 142.5C305.406 140.833 302.073 140 297.406 140C291.073 140 284.74 141.333 278.406 144C272.406 146.333 266.573 148.833 260.906 151.5C243.24 159.833 227.573 169.167 213.906 179.5C200.573 189.5 188.073 200.667 176.406 213C164.74 225 152.906 238.167 140.906 252.5C136.573 257.5 131.406 263.833 125.406 271.5C119.406 278.833 114.073 286.667 109.406 295C104.74 303 102.406 310.5 102.406 317.5C102.406 322.5 104.406 325.667 108.406 327C112.406 328 116.573 328.5 120.906 328.5C123.573 328.5 126.073 328.167 128.406 327.5C131.073 326.833 133.573 326.333 135.906 326L145.406 324.5C157.073 322.5 165.573 320.833 170.906 319.5C176.24 318.167 179.74 317 181.406 316C183.406 315 184.906 314.5 185.906 314.5C186.573 314.5 187.573 314.5 188.906 314.5C190.24 314.167 192.24 313.833 194.906 313.5C195.906 313.833 196.74 314 197.406 314C198.073 314 198.573 314.167 198.906 314.5C199.573 315.167 199.906 315.833 199.906 316.5C199.906 317.5 199.073 318.333 197.406 319C196.073 319.333 194.573 319.5 192.906 319.5C189.906 320.833 185.406 322.833 179.406 325.5C173.74 328.167 167.073 330.833 159.406 333.5C152.073 336.167 144.24 338.667 135.906 341C127.906 343 120.406 344 113.406 344C108.073 344 102.24 343.167 95.9063 341.5C89.5729 339.5 84.0729 336.667 79.4063 333C74.7396 329 72.0729 324 71.4062 318C70.7396 310 72.2396 302.333 75.9063 295C79.9063 287.667 84.7396 280.667 90.4063 274C96.0729 267.333 101.24 261.333 105.906 256C107.906 254 109.573 251.833 110.906 249.5C112.24 246.833 113.906 244.667 115.906 243C117.573 241.333 119.406 239.667 121.406 238C123.74 236.333 125.74 234.667 127.406 233C131.073 229.667 134.24 226.333 136.906 223C139.906 219.667 143.573 216.833 147.906 214.5C148.573 213.5 149.24 212.5 149.906 211.5C150.573 210.167 151.24 209 151.906 208C153.573 205.333 155.906 203 158.906 201C162.24 198.667 165.073 196.5 167.406 194.5C171.74 190.833 176.073 187.667 180.406 185C185.073 182.333 189.573 179.5 193.906 176.5C200.906 171.5 207.906 166.667 214.906 162C222.24 157.333 229.906 153.167 237.906 149.5C238.906 148.833 240.073 148.333 241.406 148C242.74 147.333 244.073 146.5 245.406 145.5L245.906 146C255.24 139 266.74 134.667 280.406 133C281.74 132.667 283.073 132.333 284.406 132C285.74 131.667 287.073 131.333 288.406 131C298.073 131 307.406 133.833 316.406 139.5C325.406 145.167 329.906 153.833 329.906 165.5C329.906 173.5 328.073 181.167 324.406 188.5C321.073 195.5 317.573 202.333 313.906 209C311.573 212.667 309.573 216.5 307.906 220.5C306.24 224.5 304.406 228.333 302.406 232C294.74 246 286.906 260 278.906 274C270.906 287.667 263.573 301.833 256.906 316.5C255.24 319.833 252.906 324.5 249.906 330.5C246.906 336.167 245.073 340.833 244.406 344.5C255.073 329.833 264.906 314.833 273.906 299.5C283.24 284.167 293.24 269.5 303.906 255.5C306.573 251.833 309.24 248.333 311.906 245C314.573 241.333 317.073 237.833 319.406 234.5C323.073 230.167 327.073 225.333 331.406 220C335.74 214.333 340.406 209.5 345.406 205.5C350.74 201.5 356.406 199.5 362.406 199.5C366.74 199.5 372.073 200.667 378.406 203C385.073 205.333 391.24 208.333 396.906 212C402.573 215.667 406.24 219.5 407.906 223.5C408.573 225.167 409.073 227.333 409.406 230C409.74 232.667 409.906 235.333 409.906 238C409.906 241 409.74 244 409.406 247C409.406 250 409.24 252.5 408.906 254.5C406.906 265.833 405.24 277.5 403.906 289.5C402.906 301.5 402.406 313.833 402.406 326.5C402.406 337.833 402.906 349 403.906 360C404.24 362.667 404.74 367.333 405.406 374C406.073 380.333 407.573 386.333 409.906 392C412.24 397.667 415.406 400.5 419.406 400.5C423.073 400.5 426.24 397.667 428.906 392C431.906 386.333 434.073 382 435.406 379C437.073 375.667 438.573 373.833 439.906 373.5C440.573 374.5 440.906 375.667 440.906 377C441.24 379.333 441.24 383.833 440.906 390.5C440.573 397.167 439.406 401.667 437.406 404C436.073 405.333 433.573 406.167 429.906 406.5C426.573 406.833 423.906 407 421.906 407C413.573 407.667 406.573 405.833 400.906 401.5C395.573 397.5 391.24 392.333 387.906 386C384.573 379.667 382.073 373.333 380.406 367C379.073 360.333 378.24 355 377.906 351C377.24 342.667 376.74 334.167 376.406 325.5C376.073 316.833 375.906 308.333 375.906 300C375.906 284.333 376.406 269 377.406 254C377.406 252.333 377.573 249.833 377.906 246.5C378.24 242.833 378.406 239 378.406 235C378.406 228.667 377.74 222.833 376.406 217.5C375.406 211.833 372.906 209 368.906 209C366.24 209 363.406 210.167 360.406 212.5C357.406 214.833 354.906 216.833 352.906 218.5C332.24 237.833 314.24 259.333 298.906 283C283.573 306.333 269.073 330 255.406 354C250.073 363.333 245.406 373 241.406 383C237.74 392.667 233.406 402.333 228.406 412C227.073 414.333 225.24 416.5 222.906 418.5C220.906 420.5 218.073 421.5 214.406 421.5Z" fill="white"/>
</g>
<defs>
<clipPath id="clip0_18_3">
<rect width="512" height="512" fill="white"/>
</clipPath>
</defs>
</svg>
