<svg width="444" height="175" viewBox="0 0 444 175" fill="none" xmlns="http://www.w3.org/2000/svg">
<path d="M86.8875 174.9C84.8875 174.9 82.0875 174.3 78.4875 173.1C75.0875 172.1 73.2875 170.6 73.0875 168.6C72.8875 166.4 73.1875 164.4 73.9875 162.6C74.9875 160.8 75.8875 158.9 76.6875 156.9L85.6875 136.5C92.0875 121.9 99.1875 108.5 106.988 96.3C114.988 83.9 122.188 70.4 128.588 55.8C131.388 49.4 134.788 42.6 138.788 35.4C142.788 28.2 144.788 21 144.788 13.8C144.788 10.4 144.088 8.29999 142.688 7.49999C141.488 6.49999 139.488 5.99999 136.688 5.99999C132.888 5.99999 129.088 6.79999 125.288 8.39999C121.688 9.8 118.188 11.3 114.788 12.9C104.188 17.9 94.7875 23.5 86.5875 29.7C78.5875 35.7 71.0875 42.4 64.0875 49.8C57.0875 57 49.9875 64.9 42.7875 73.5C40.1875 76.5 37.0875 80.3 33.4875 84.9C29.8875 89.3 26.6875 94 23.8875 99C21.0875 103.8 19.6875 108.3 19.6875 112.5C19.6875 115.5 20.8875 117.4 23.2875 118.2C25.6875 118.8 28.1875 119.1 30.7875 119.1C32.3875 119.1 33.8875 118.9 35.2875 118.5C36.8875 118.1 38.3875 117.8 39.7875 117.6L45.4875 116.7C52.4875 115.5 57.5875 114.5 60.7875 113.7C63.9875 112.9 66.0875 112.2 67.0875 111.6C68.2875 111 69.1875 110.7 69.7875 110.7C70.1875 110.7 70.7875 110.7 71.5875 110.7C72.3875 110.5 73.5875 110.3 75.1875 110.1C75.7875 110.3 76.2875 110.4 76.6875 110.4C77.0875 110.4 77.3875 110.5 77.5875 110.7C77.9875 111.1 78.1875 111.5 78.1875 111.9C78.1875 112.5 77.6875 113 76.6875 113.4C75.8875 113.6 74.9875 113.7 73.9875 113.7C72.1875 114.5 69.4875 115.7 65.8875 117.3C62.4875 118.9 58.4875 120.5 53.8875 122.1C49.4875 123.7 44.7875 125.2 39.7875 126.6C34.9875 127.8 30.4875 128.4 26.2875 128.4C23.0875 128.4 19.5875 127.9 15.7875 126.9C11.9875 125.7 8.6875 124 5.8875 121.8C3.0875 119.4 1.4875 116.4 1.0875 112.8C0.6875 108 1.5875 103.4 3.7875 99C6.1875 94.6 9.0875 90.4 12.4875 86.4C15.8875 82.4 18.9875 78.8 21.7875 75.6C22.9875 74.4 23.9875 73.1 24.7875 71.7C25.5875 70.1 26.5875 68.8 27.7875 67.8C28.7875 66.8 29.8875 65.8 31.0875 64.8C32.4875 63.8 33.6875 62.8 34.6875 61.8C36.8875 59.8 38.7875 57.8 40.3875 55.8C42.1875 53.8 44.3875 52.1 46.9875 50.7C47.3875 50.1 47.7875 49.5 48.1875 48.9C48.5875 48.1 48.9875 47.4 49.3875 46.8C50.3875 45.2 51.7875 43.8 53.5875 42.6C55.5875 41.2 57.2875 39.9 58.6875 38.7C61.2875 36.5 63.8875 34.6 66.4875 33C69.2875 31.4 71.9875 29.7 74.5875 27.9C78.7875 24.9 82.9875 22 87.1875 19.2C91.5875 16.4 96.1875 13.9 100.988 11.7C101.588 11.3 102.288 11 103.088 10.8C103.888 10.4 104.688 9.89999 105.488 9.3L105.788 9.6C111.388 5.39999 118.288 2.79999 126.488 1.79999C127.288 1.59999 128.088 1.39999 128.888 1.2C129.688 0.999999 130.488 0.799995 131.288 0.599986C137.088 0.599986 142.688 2.29999 148.088 5.69999C153.488 9.1 156.188 14.3 156.188 21.3C156.188 26.1 155.088 30.7 152.888 35.1C150.888 39.3 148.788 43.4 146.588 47.4C145.188 49.6 143.988 51.9 142.988 54.3C141.988 56.7 140.888 59 139.688 61.2C135.088 69.6 130.388 78 125.588 86.4C120.788 94.6 116.388 103.1 112.388 111.9C111.388 113.9 109.988 116.7 108.188 120.3C106.388 123.7 105.288 126.5 104.888 128.7C111.288 119.9 117.188 110.9 122.588 101.7C128.188 92.5 134.188 83.7 140.588 75.3C142.188 73.1 143.788 71 145.388 69C146.988 66.8 148.488 64.7 149.888 62.7C152.088 60.1 154.487 57.2 157.088 54C159.688 50.6 162.488 47.7 165.488 45.3C168.688 42.9 172.088 41.7 175.688 41.7C178.288 41.7 181.488 42.4 185.288 43.8C189.288 45.2 192.988 47 196.388 49.2C199.788 51.4 201.988 53.7 202.988 56.1C203.388 57.1 203.688 58.4 203.888 60C204.088 61.6 204.188 63.2 204.188 64.8C204.188 66.6 204.088 68.4 203.888 70.2C203.888 72 203.788 73.5 203.588 74.7C202.388 81.5 201.388 88.5 200.588 95.7C199.988 102.9 199.688 110.3 199.688 117.9C199.688 124.7 199.988 131.4 200.588 138C200.788 139.6 201.088 142.4 201.488 146.4C201.888 150.2 202.788 153.8 204.188 157.2C205.588 160.6 207.488 162.3 209.888 162.3C212.088 162.3 213.988 160.6 215.588 157.2C217.388 153.8 218.688 151.2 219.488 149.4C220.488 147.4 221.388 146.3 222.188 146.1C222.588 146.7 222.788 147.4 222.788 148.2C222.988 149.6 222.988 152.3 222.788 156.3C222.588 160.3 221.888 163 220.688 164.4C219.888 165.2 218.388 165.7 216.188 165.9C214.188 166.1 212.588 166.2 211.388 166.2C206.388 166.6 202.188 165.5 198.788 162.9C195.588 160.5 192.988 157.4 190.988 153.6C188.988 149.8 187.488 146 186.488 142.2C185.688 138.2 185.188 135 184.988 132.6C184.588 127.6 184.288 122.5 184.088 117.3C183.888 112.1 183.788 107 183.788 102C183.788 92.6 184.088 83.4 184.688 74.4C184.688 73.4 184.788 71.9 184.988 69.9C185.188 67.7 185.288 65.4 185.288 63C185.288 59.2 184.888 55.7 184.088 52.5C183.488 49.1 181.988 47.4 179.588 47.4C177.988 47.4 176.288 48.1 174.488 49.5C172.688 50.9 171.188 52.1 169.988 53.1C157.588 64.7 146.788 77.6 137.588 91.8C128.388 105.8 119.688 120 111.488 134.4C108.288 140 105.488 145.8 103.088 151.8C100.888 157.6 98.2875 163.4 95.2875 169.2C94.4875 170.6 93.3875 171.9 91.9875 173.1C90.7875 174.3 89.0875 174.9 86.8875 174.9ZM307.2 174.9C305.2 174.9 302.4 174.3 298.8 173.1C295.4 172.1 293.6 170.6 293.4 168.6C293.2 166.4 293.5 164.4 294.3 162.6C295.3 160.8 296.2 158.9 297 156.9L306 136.5C312.4 121.9 319.5 108.5 327.3 96.3C335.3 83.9 342.5 70.4 348.9 55.8C351.7 49.4 355.1 42.6 359.1 35.4C363.1 28.2 365.1 21 365.1 13.8C365.1 10.4 364.4 8.29999 363 7.49999C361.8 6.49999 359.8 5.99999 357 5.99999C353.2 5.99999 349.4 6.79999 345.6 8.39999C342 9.8 338.5 11.3 335.1 12.9C324.5 17.9 315.1 23.5 306.9 29.7C298.9 35.7 291.4 42.4 284.4 49.8C277.4 57 270.3 64.9 263.1 73.5C260.5 76.5 257.4 80.3 253.8 84.9C250.2 89.3 247 94 244.2 99C241.4 103.8 240 108.3 240 112.5C240 115.5 241.2 117.4 243.6 118.2C246 118.8 248.5 119.1 251.1 119.1C252.7 119.1 254.2 118.9 255.6 118.5C257.2 118.1 258.7 117.8 260.1 117.6L265.8 116.7C272.8 115.5 277.9 114.5 281.1 113.7C284.3 112.9 286.4 112.2 287.4 111.6C288.6 111 289.5 110.7 290.1 110.7C290.5 110.7 291.1 110.7 291.9 110.7C292.7 110.5 293.9 110.3 295.5 110.1C296.1 110.3 296.6 110.4 297 110.4C297.4 110.4 297.7 110.5 297.9 110.7C298.3 111.1 298.5 111.5 298.5 111.9C298.5 112.5 298 113 297 113.4C296.2 113.6 295.3 113.7 294.3 113.7C292.5 114.5 289.8 115.7 286.2 117.3C282.8 118.9 278.8 120.5 274.2 122.1C269.8 123.7 265.1 125.2 260.1 126.6C255.3 127.8 250.8 128.4 246.6 128.4C243.4 128.4 239.9 127.9 236.1 126.9C232.3 125.7 229 124 226.2 121.8C223.4 119.4 221.8 116.4 221.4 112.8C221 108 221.9 103.4 224.1 99C226.5 94.6 229.4 90.4 232.8 86.4C236.2 82.4 239.3 78.8 242.1 75.6C243.3 74.4 244.3 73.1 245.1 71.7C245.9 70.1 246.9 68.8 248.1 67.8C249.1 66.8 250.2 65.8 251.4 64.8C252.8 63.8 254 62.8 255 61.8C257.2 59.8 259.1 57.8 260.7 55.8C262.5 53.8 264.7 52.1 267.3 50.7C267.7 50.1 268.1 49.5 268.5 48.9C268.9 48.1 269.3 47.4 269.7 46.8C270.7 45.2 272.1 43.8 273.9 42.6C275.9 41.2 277.6 39.9 279 38.7C281.6 36.5 284.2 34.6 286.8 33C289.6 31.4 292.3 29.7 294.9 27.9C299.1 24.9 303.3 22 307.5 19.2C311.9 16.4 316.5 13.9 321.3 11.7C321.9 11.3 322.6 11 323.4 10.8C324.2 10.4 325 9.89999 325.8 9.3L326.1 9.6C331.7 5.39999 338.6 2.79999 346.8 1.79999C347.6 1.59999 348.4 1.39999 349.2 1.2C350 0.999999 350.8 0.799995 351.6 0.599986C357.4 0.599986 363 2.29999 368.4 5.69999C373.8 9.1 376.5 14.3 376.5 21.3C376.5 26.1 375.4 30.7 373.2 35.1C371.2 39.3 369.1 43.4 366.9 47.4C365.5 49.6 364.3 51.9 363.3 54.3C362.3 56.7 361.2 59 360 61.2C355.4 69.6 350.7 78 345.9 86.4C341.1 94.6 336.7 103.1 332.7 111.9C331.7 113.9 330.3 116.7 328.5 120.3C326.7 123.7 325.6 126.5 325.2 128.7C331.6 119.9 337.5 110.9 342.9 101.7C348.5 92.5 354.5 83.7 360.9 75.3C362.5 73.1 364.1 71 365.7 69C367.3 66.8 368.8 64.7 370.2 62.7C372.4 60.1 374.8 57.2 377.4 54C380 50.6 382.8 47.7 385.8 45.3C389 42.9 392.4 41.7 396 41.7C398.6 41.7 401.8 42.4 405.6 43.8C409.6 45.2 413.3 47 416.7 49.2C420.1 51.4 422.3 53.7 423.3 56.1C423.7 57.1 424 58.4 424.2 60C424.4 61.6 424.5 63.2 424.5 64.8C424.5 66.6 424.4 68.4 424.2 70.2C424.2 72 424.1 73.5 423.9 74.7C422.7 81.5 421.7 88.5 420.9 95.7C420.3 102.9 420 110.3 420 117.9C420 124.7 420.3 131.4 420.9 138C421.1 139.6 421.4 142.4 421.8 146.4C422.2 150.2 423.1 153.8 424.5 157.2C425.9 160.6 427.8 162.3 430.2 162.3C432.4 162.3 434.3 160.6 435.9 157.2C437.7 153.8 439 151.2 439.8 149.4C440.8 147.4 441.7 146.3 442.5 146.1C442.9 146.7 443.1 147.4 443.1 148.2C443.3 149.6 443.3 152.3 443.1 156.3C442.9 160.3 442.2 163 441 164.4C440.2 165.2 438.7 165.7 436.5 165.9C434.5 166.1 432.9 166.2 431.7 166.2C426.7 166.6 422.5 165.5 419.1 162.9C415.9 160.5 413.3 157.4 411.3 153.6C409.3 149.8 407.8 146 406.8 142.2C406 138.2 405.5 135 405.3 132.6C404.9 127.6 404.6 122.5 404.4 117.3C404.2 112.1 404.1 107 404.1 102C404.1 92.6 404.4 83.4 405 74.4C405 73.4 405.1 71.9 405.3 69.9C405.5 67.7 405.6 65.4 405.6 63C405.6 59.2 405.2 55.7 404.4 52.5C403.8 49.1 402.3 47.4 399.9 47.4C398.3 47.4 396.6 48.1 394.8 49.5C393 50.9 391.5 52.1 390.3 53.1C377.9 64.7 367.1 77.6 357.9 91.8C348.7 105.8 340 120 331.8 134.4C328.6 140 325.8 145.8 323.4 151.8C321.2 157.6 318.6 163.4 315.6 169.2C314.8 170.6 313.7 171.9 312.3 173.1C311.1 174.3 309.4 174.9 307.2 174.9Z" fill="#FAF3E0"/>
</svg>
